<svg xmlns="http://www.w3.org/2000/svg" viewBox="0 0 500 500"><g id="freepik--background-complete--inject-694"><rect y="382.4" width="500" height="0.25" style="fill:#ebebeb"></rect><rect x="416.78" y="398.49" width="33.12" height="0.25" style="fill:#ebebeb"></rect><rect x="322.53" y="401.21" width="8.69" height="0.25" style="fill:#ebebeb"></rect><rect x="396.59" y="389.21" width="19.19" height="0.25" style="fill:#ebebeb"></rect><rect x="52.46" y="390.89" width="43.19" height="0.25" style="fill:#ebebeb"></rect><rect x="104.56" y="390.89" width="6.33" height="0.25" style="fill:#ebebeb"></rect><rect x="131.47" y="395.11" width="93.68" height="0.25" style="fill:#ebebeb"></rect><path d="M237,337.8H43.91a5.71,5.71,0,0,1-5.7-5.71V60.66A5.71,5.71,0,0,1,43.91,55H237a5.71,5.71,0,0,1,5.71,5.71V332.09A5.71,5.71,0,0,1,237,337.8ZM43.91,55.2a5.46,5.46,0,0,0-5.45,5.46V332.09a5.46,5.46,0,0,0,5.45,5.46H237a5.47,5.47,0,0,0,5.46-5.46V60.66A5.47,5.47,0,0,0,237,55.2Z" style="fill:#ebebeb"></path><path d="M453.31,337.8H260.21a5.72,5.72,0,0,1-5.71-5.71V60.66A5.72,5.72,0,0,1,260.21,55h193.1A5.71,5.71,0,0,1,459,60.66V332.09A5.71,5.71,0,0,1,453.31,337.8ZM260.21,55.2a5.47,5.47,0,0,0-5.46,5.46V332.09a5.47,5.47,0,0,0,5.46,5.46h193.1a5.47,5.47,0,0,0,5.46-5.46V60.66a5.47,5.47,0,0,0-5.46-5.46Z" style="fill:#ebebeb"></path><rect x="70.04" y="211.8" width="25.46" height="10.83" style="fill:#f0f0f0"></rect><rect x="100.85" y="211.8" width="25.46" height="10.83" style="fill:#f0f0f0"></rect><rect x="131.65" y="211.8" width="25.46" height="10.83" style="fill:#f0f0f0"></rect><rect x="54.63" y="226.88" width="25.46" height="10.83" style="fill:#f0f0f0"></rect><rect x="85.44" y="226.88" width="25.46" height="10.83" style="fill:#f0f0f0"></rect><rect x="116.25" y="226.88" width="25.46" height="10.83" style="fill:#f0f0f0"></rect><rect x="147.06" y="226.88" width="25.46" height="10.83" style="fill:#f0f0f0"></rect><rect x="39.23" y="241.96" width="25.46" height="10.83" style="fill:#f0f0f0"></rect><rect x="70.04" y="241.96" width="25.46" height="10.83" style="fill:#f0f0f0"></rect><rect x="100.85" y="241.96" width="25.46" height="10.83" style="fill:#f0f0f0"></rect><rect x="131.65" y="241.96" width="25.46" height="10.83" style="fill:#f0f0f0"></rect><rect x="162.46" y="241.96" width="25.46" height="10.83" style="fill:#f0f0f0"></rect><rect x="54.63" y="257.04" width="25.46" height="10.83" style="fill:#f0f0f0"></rect><rect x="85.44" y="257.04" width="25.46" height="10.83" style="fill:#f0f0f0"></rect><rect x="116.25" y="257.04" width="25.46" height="10.83" style="fill:#f0f0f0"></rect><rect x="147.06" y="257.04" width="25.46" height="10.83" style="fill:#f0f0f0"></rect><rect x="317.23" y="98.17" width="25.46" height="10.83" style="fill:#f0f0f0"></rect><rect x="348.03" y="98.17" width="25.46" height="10.83" style="fill:#f0f0f0"></rect><rect x="301.82" y="113.25" width="25.46" height="10.83" style="fill:#f0f0f0"></rect><rect x="332.63" y="113.25" width="25.46" height="10.83" style="fill:#f0f0f0"></rect><rect x="394.25" y="113.25" width="25.46" height="10.83" style="fill:#f0f0f0"></rect><rect x="425.05" y="113.25" width="25.46" height="10.83" style="fill:#f0f0f0"></rect><rect x="317.23" y="128.33" width="25.46" height="10.83" style="fill:#f0f0f0"></rect><rect x="348.03" y="128.33" width="25.46" height="10.83" style="fill:#f0f0f0"></rect><rect x="409.65" y="128.33" width="25.46" height="10.83" style="fill:#f0f0f0"></rect><rect x="106.94" y="68.81" width="25.46" height="10.83" style="fill:#f0f0f0"></rect><rect x="137.75" y="68.81" width="25.46" height="10.83" style="fill:#f0f0f0"></rect><rect x="91.53" y="83.89" width="25.46" height="10.83" style="fill:#f0f0f0"></rect><rect x="122.34" y="83.89" width="25.46" height="10.83" style="fill:#f0f0f0"></rect><rect x="153.15" y="83.89" width="25.46" height="10.83" style="fill:#f0f0f0"></rect><rect x="76.13" y="98.97" width="25.46" height="10.83" style="fill:#f0f0f0"></rect><rect x="106.94" y="98.97" width="25.46" height="10.83" style="fill:#f0f0f0"></rect><rect x="137.75" y="98.97" width="25.46" height="10.83" style="fill:#f0f0f0"></rect><rect x="91.53" y="114.05" width="25.46" height="10.83" style="fill:#f0f0f0"></rect><rect x="122.34" y="114.05" width="25.46" height="10.83" style="fill:#f0f0f0"></rect><rect x="317.18" y="194" width="25.46" height="10.83" style="fill:#f0f0f0"></rect><rect x="347.99" y="194" width="25.46" height="10.83" style="fill:#f0f0f0"></rect><rect x="240.16" y="209.08" width="25.46" height="10.83" style="fill:#f0f0f0"></rect><rect x="301.78" y="209.08" width="25.46" height="10.83" style="fill:#f0f0f0"></rect><rect x="332.59" y="209.08" width="25.46" height="10.83" style="fill:#f0f0f0"></rect><rect x="224.76" y="224.16" width="25.46" height="10.83" style="fill:#f0f0f0"></rect><rect x="255.57" y="224.16" width="25.46" height="10.83" style="fill:#f0f0f0"></rect><rect x="317.18" y="224.16" width="25.46" height="10.83" style="fill:#f0f0f0"></rect><rect x="347.99" y="224.16" width="25.46" height="10.83" style="fill:#f0f0f0"></rect><rect x="301.78" y="239.24" width="25.46" height="10.83" style="fill:#f0f0f0"></rect><rect x="332.59" y="239.24" width="25.46" height="10.83" style="fill:#f0f0f0"></rect><rect x="330.26" y="294.66" width="25.46" height="10.83" style="fill:#f0f0f0"></rect><rect x="361.07" y="294.66" width="25.46" height="10.83" style="fill:#f0f0f0"></rect><rect x="391.88" y="294.66" width="25.46" height="10.83" style="fill:#f0f0f0"></rect><rect x="422.68" y="294.66" width="25.46" height="10.83" style="fill:#f0f0f0"></rect><rect x="314.86" y="309.74" width="25.46" height="10.83" style="fill:#f0f0f0"></rect><rect x="345.66" y="309.74" width="25.46" height="10.83" style="fill:#f0f0f0"></rect><rect x="407.28" y="309.74" width="25.46" height="10.83" style="fill:#f0f0f0"></rect><rect x="299.45" y="324.82" width="25.46" height="10.83" style="fill:#f0f0f0"></rect><rect x="330.26" y="324.82" width="25.46" height="10.83" style="fill:#f0f0f0"></rect><rect x="361.07" y="324.82" width="25.46" height="10.83" style="fill:#f0f0f0"></rect><rect x="314.86" y="339.9" width="25.46" height="10.83" style="fill:#f0f0f0"></rect><rect x="345.66" y="339.9" width="25.46" height="10.83" style="fill:#f0f0f0"></rect><rect x="376.47" y="339.9" width="25.46" height="10.83" style="fill:#f0f0f0"></rect><rect x="156.09" y="293.96" width="25.46" height="10.83" style="fill:#f0f0f0"></rect><rect x="186.9" y="293.96" width="25.46" height="10.83" style="fill:#f0f0f0"></rect><rect x="217.71" y="293.96" width="25.46" height="10.83" style="fill:#f0f0f0"></rect><rect x="140.69" y="309.04" width="25.46" height="10.83" style="fill:#f0f0f0"></rect><rect x="171.5" y="309.04" width="25.46" height="10.83" style="fill:#f0f0f0"></rect><rect x="202.31" y="309.04" width="25.46" height="10.83" style="fill:#f0f0f0"></rect><rect x="233.11" y="309.04" width="25.46" height="10.83" style="fill:#f0f0f0"></rect><rect x="125.29" y="324.12" width="25.46" height="10.83" style="fill:#f0f0f0"></rect><rect x="156.09" y="324.12" width="25.46" height="10.83" style="fill:#f0f0f0"></rect><rect x="186.9" y="324.12" width="25.46" height="10.83" style="fill:#f0f0f0"></rect><rect x="217.71" y="324.12" width="25.46" height="10.83" style="fill:#f0f0f0"></rect><rect x="140.69" y="339.2" width="25.46" height="10.83" style="fill:#f0f0f0"></rect><rect x="171.5" y="339.2" width="25.46" height="10.83" style="fill:#f0f0f0"></rect><rect x="202.31" y="339.2" width="25.46" height="10.83" style="fill:#f0f0f0"></rect><rect x="233.11" y="339.2" width="25.46" height="10.83" style="fill:#f0f0f0"></rect><polygon points="332.59 382.94 223.46 382.94 216.99 249.52 326.11 249.52 332.59 382.94" style="fill:#e0e0e0"></polygon><polygon points="324.56 375.87 230.8 375.87 225.01 256.59 318.77 256.59 324.56 375.87" style="fill:#ebebeb"></polygon><polygon points="320.42 370.9 234.46 370.9 229.15 261.56 315.11 261.56 320.42 370.9" style="fill:#e6e6e6"></polygon><path d="M76.28,354.21s-5.64-12.32.81-24.47,8.33-15,4.21-17.51-6,9.72-6,9.72-3.47-8.4-.61-17.19,4.66-23.1.75-24.64S74.7,298,71.3,304.59A57,57,0,0,1,68,290.17c-.47-7.06.27-18.33-2.82-21.23s-5.07-.89-2,14.7a163.37,163.37,0,0,1,3,28.24s-6.7-20.44-11.2-21-4.5,6-.65,11.76,11.28,16,12.5,21.32c0,0-7.36-15.38-14-10.67s5.76,14,11.28,17.37S73.44,355,73.44,355Z" style="fill:#e0e0e0"></path><path d="M71.83,359.27s5.5-12.41-1.1-24.46-8.51-14.89-4.42-17.44S72.42,327,72.42,327s3.37-8.45.4-17.2-4.93-23-1-24.63,1,17.85,4.43,24.41a57.22,57.22,0,0,0,3.15-14.47c.38-7.07-.49-18.33,2.57-21.27s5-1,2.21,14.66a163.35,163.35,0,0,0-2.68,28.29s6.46-20.54,11-21.2,4.57,6,.78,11.75S82.11,323.54,81,328.85c0,0,7.18-15.49,13.85-10.88s-5.59,14.09-11.07,17.53-9,24.54-9,24.54Z" style="fill:#ebebeb"></path><polygon points="97.2 350.42 51.75 350.42 55.43 382.94 93.52 382.94 97.2 350.42" style="fill:#ebebeb"></polygon><path d="M418,350.59c.16-1,3.65-25.18-3.36-33.51a7.59,7.59,0,0,0-5.82-2.87c-14.15-.33-16.09,11-16.1,11.15l1.66.26c.07-.41,1.75-10,14.4-9.72a5.87,5.87,0,0,1,4.57,2.26c6.53,7.76,3,31.93,3,32.18Z" style="fill:#ebebeb"></path><path d="M418.9,349.49l1.69-.06c0-.22-.56-22.25,10.29-26.8,10.64-4.45,15.42,4.71,15.62,5.1L448,327c-.06-.11-5.67-11-17.78-5.9C418.3,326.07,418.87,348.53,418.9,349.49Z" style="fill:#ebebeb"></path><path d="M418.85,351.22c0-.36.1-35.19,6.89-45.38,6.53-9.79,17.05-5.18,17.49-5l.7-1.54c-.12-.05-12.26-5.41-19.59,5.58-7.08,10.61-7.18,44.86-7.18,46.31Z" style="fill:#ebebeb"></path><path d="M406.84,315.05s6.18,2.28,4.34,7.65-21.38,14.23-21.38,14.23-8.18-7.5-.67-19.7S406.67,311.2,406.84,315.05Z" style="fill:#e0e0e0"></path><path d="M426.05,304s-4.39-.47-4-3.14,17.05-9.55,26.9,1.57c0,0-6.3,10.84-15.43,11S426.05,304,426.05,304Z" style="fill:#e0e0e0"></path><path d="M430.55,321.85s-3-2.44.24-3.63,19.3-.86,19.47,15c0,0-18.67,3.11-21-2.94S430.55,321.85,430.55,321.85Z" style="fill:#e0e0e0"></path><polygon points="403.52 382.94 432.49 382.94 435.62 351.21 400.39 351.21 403.52 382.94" style="fill:#ebebeb"></polygon><rect x="398.84" y="347.71" width="38.32" height="7" transform="translate(836.01 702.43) rotate(180)" style="fill:#e0e0e0"></rect></g><g id="freepik--Shadow--inject-694"><ellipse id="freepik--path--inject-694" cx="250" cy="416.24" rx="193.89" ry="11.32" style="fill:#f5f5f5"></ellipse></g><g id="freepik--Mural--inject-694"><path d="M263.07,132.22c-.62-.22-1.28-.42-2-.66.52-.63,1.07-1.14.89-2-.22.11-.4.22-.72.42.27-.51.45-.89.68-1.36a3.42,3.42,0,0,0-1-.41,12.63,12.63,0,0,0-3,0,111.26,111.26,0,0,0-16,3.87c-1.41.46-2.83.84-4.29,1.24l.67-.46c-.73.35,0-.5-.43-.52-.48.19-1,.35-1.52.56l1.31.37-4,1.58-2.15.7a7.58,7.58,0,0,1-3,.14c-.39.21-1,.47-1.55.75a.48.48,0,0,1,.07.23c.26-.08.53-.13.86-.22-.06.09-.09.17-.12.18-2.4,1.12-4.76,2.24-7.15,3.41-2.1,1-4.17,2-6.23,3a156.81,156.81,0,0,0-19.93,12.31,74.59,74.59,0,0,0-7.3,5.86c-.61.57-1.21,1.21-1.85,1.86.84.84-.18,1.28-.2,1.91a4.2,4.2,0,0,1-2.79-.61,4.19,4.19,0,0,1,1.1-4.12c1.18-1.17,2.35-2.37,3.62-3.43a81.07,81.07,0,0,1,7.83-6,4.94,4.94,0,0,0,1.91-2.69c.66-2.18,1.33-4.31,2-6.45.48-1.6.93-3.19,1.41-4.79a7,7,0,0,1,.36-.73,5.77,5.77,0,0,1,.23-1.24c1.94-6.88,3.91-13.79,5.89-20.67.38-1.28.88-2.53,1.26-3.84.9-3.11,1.77-6.22,2.59-9.36.34-1.26.52-2.58.86-3.89.92-3.74,1.92-7.49,2.76-11.26.5-2.23.83-4.51,1.14-6.74.08-.48.5-.75.37-1.35l.69,1.14c.21-.62-.11-1.39.39-1.94.33.14.59.3.89.41a2.59,2.59,0,0,1,.42,2.15A66.58,66.58,0,0,1,216,89.8q-3.36,13-6.9,25.83c-1.79,6.58-3.67,13.09-5.58,19.65-1.16,4-2.39,8-3.64,12.1.9.05,1.35-.8,2.16-.89a3.82,3.82,0,0,1,.34.41c.94-.7,1.85-1.35,2.75-2l0,0a19.7,19.7,0,0,0,4.43-2.82c.11-.06.06-.32.1-.56,3.92-2.16,8-4.14,12.13-6s8.37-3.33,12.66-4.81a120.69,120.69,0,0,1,13-3.8l-1.87,1,0,.12c.7-.23,1.38-.38,2-.64,1.48-.52,3-1.1,4.43-1.61a10.45,10.45,0,0,1,2.24-.4c1.23-.12,2.43-.2,3.68-.21a9,9,0,0,1,4.69.77c.14.88,1.07.85,1.65,1.26C265.37,129.54,264.92,131.37,263.07,132.22Zm-62.77,7.71c.33-.37.66-.73.38-1.27Zm.13-3.81a7.25,7.25,0,0,0,.3.93,6.86,6.86,0,0,0,.49-2.78C200.9,135,200.69,135.53,200.43,136.12Zm8.85,8.89c-.94-.51-1-.55-1.47.08a4.54,4.54,0,0,1-1.66,1.36c-.25.12-.5.31-.82.48.13.1.22.16.26.15C206.81,146.42,208,145.72,209.28,145Zm17.3-8.49-2.16.86A2.75,2.75,0,0,0,226.58,136.52Zm11-4.7c-2.08-.06-3.78,1-5.56,1.83A26.44,26.44,0,0,0,237.62,131.82ZM243.8,129c-.66-.48-.8.32-1.19.35a1.6,1.6,0,0,0-1.16.57,14.35,14.35,0,0,0,2.21-.59C243.74,129.31,243.75,129.15,243.8,129Zm13.71-1.23c0-.11-.07-.18-.09-.3a72.84,72.84,0,0,0-11.6,2.88,24.75,24.75,0,0,0,2.9-.66,36.49,36.49,0,0,1,4.47-1.11c.68-.11,1.41-.22,2.12-.38S256.79,127.91,257.51,127.76Zm3.32-.49c-.56-.31-1.1-.53-1.69-.08Zm1.86,1.65c0,.58,0,1.13,0,1.83C263.32,129.87,263.29,129.72,262.69,128.92Zm1.42-.89c-.41-.17-.65-.68-1.1-.3a13.3,13.3,0,0,0,.52,1.29,2.08,2.08,0,0,0,.52.58C264.09,129.08,264.08,128.54,264.11,128Zm.29,1.78a1,1,0,0,0-.3-.14c0,.35,0,.7,0,1.06A1.89,1.89,0,0,0,264.4,129.81Z" style="fill:#950058"></path><path d="M234.47,128a2.7,2.7,0,0,0,.17-.38c-.85-.41-1.4-1.22-2.41-1.37-.24,0-.44-.32-.66-.48s-.64-.56-.91-.83a1.29,1.29,0,0,1-.27-.46c-.1-.34-.14-.65-.24-1-.73.08-1.47.82-2.26,0,0-.27-.06-.61-.08-1,.23-.23.47-.47.7-.74l0,0a4,4,0,0,0,2.29-.76,2,2,0,0,0,.58-.53,12.24,12.24,0,0,1,2.15-2.45,8.81,8.81,0,0,0,1.81-2.32,3.36,3.36,0,0,1,.67-1c.56-.6,1.14-1.16,1.72-1.68s1.48-1.26,2.24-1.85a1.53,1.53,0,0,1,1.6-.25c.37.13.74.23,1.07.33-.14.14-.57-.14-.43.5l.43-.5a1.62,1.62,0,0,1,1.22,2.27,5.31,5.31,0,0,1-1,1.92,28.11,28.11,0,0,1-4.39,4.26,50.9,50.9,0,0,1-4.95,3.21c-.18.11-.39.22-.53.32.36,2,1.65,2.75,4.58,2.51-.13-.1-.19-.2-.32-.3a19.85,19.85,0,0,0,2.21-.83c.69-.3,1.36-.76,2.11-1.16.34.15.76.35,1.19.59a1.14,1.14,0,0,1,.28,2,8.84,8.84,0,0,1-4.37,2l-1.37.22A8.16,8.16,0,0,1,234.47,128Zm-2.27-4.36c-.31.2-.16.41,0,.7C232.19,124.06,232.2,123.86,232.2,123.67Zm6.11-7.23-.19-.44a17.5,17.5,0,0,0-3.25,3.37A12,12,0,0,0,238.31,116.44Z" style="fill:#950058"></path><path d="M247.93,127.7a16.68,16.68,0,0,0-1.55-3.07c-.21-.32-.27-.7-.73-.86-.12,0-.18-.17-.24-.31a5.93,5.93,0,0,1-.2-4.38,5.43,5.43,0,0,0,.29-.67,7,7,0,0,1,3.21-4,10.63,10.63,0,0,0,1-.67c.34-.29.64-.65,1.17-.5.12,0,.33-.13.47-.23.57-.33,1.14-.65,1.71-1a1.07,1.07,0,0,0,.5-.51c.24-.47.2-1,.55-1.45a3.81,3.81,0,0,0,.4-1.63c.19-.77.3-1.57.52-2.35a96.49,96.49,0,0,1,4-11.85c.75-1.68,1.36-3.46,2.19-5.12a46,46,0,0,1,2.65-4.41A6.2,6.2,0,0,1,267.41,82a4.81,4.81,0,0,1,2.33-.34,2.74,2.74,0,0,1,.7.24,21.42,21.42,0,0,1,1.95,1.68,3,3,0,0,1,.64,1.3,10.15,10.15,0,0,1-.22,5.19,36.55,36.55,0,0,1-2.76,7.16c-.3.56-.69,1-1,1.61a44.09,44.09,0,0,1-5.16,7.51,4.52,4.52,0,0,0-.43.46s-.11,0-.15.06l-.26-.9c.88-1.31,1.87-2.68,2.78-4.08A29.58,29.58,0,0,0,267.32,99a3.66,3.66,0,0,0-1.48,2,45.76,45.76,0,0,1-3.64,5.27c-.23.31-.55.21-.87.41-.16-.25-.28-.5-.49-.82l.54-.08-.09-1.28c.61-.8,1.34-1.62,2-2.54,1.31-1.81,2.66-3.63,3.84-5.54a28.51,28.51,0,0,0,3.2-8.28,6,6,0,0,0-.31-3.59,2.36,2.36,0,0,0-1.95.74,14.21,14.21,0,0,0-2,2.24c-1,1.49-1.86,3-2.78,4.59-.34.56-.63,1.16-1,1.92,0-.39,0-.62-.05-.81-1,1.21-5,13.1-5.26,15.61.2,0,.4,0,.64.09a4.88,4.88,0,0,0-.75.2c-.08.25-.12.49-.19.73a1.12,1.12,0,0,0,.24,0c.33-.13.65-.3.94-.42a1.35,1.35,0,0,1,1.93,1.56,2.91,2.91,0,0,1-.11.53c.33.1.67.24,1.09.41,0,.16-.09.44-.14.84a8.12,8.12,0,0,1-1.58-1.81l-.05.71-.53-.66c-.15,0-.39,0-.65.07.31.49.58,1,.89,1.41a.65.65,0,0,0-.17.15c-.28-.27-.52-.54-.76-.82a1.67,1.67,0,0,0-2,1.22c-.09-.1-.16-.25-.31-.46a28.48,28.48,0,0,0-1.07,4c.2-.19.37-.33.68-.58l.45.6a86.73,86.73,0,0,1-2.09,9.12,8.33,8.33,0,0,1-2.65,3.9A2.7,2.7,0,0,1,247.93,127.7Zm4.88-13.32c-.9.69-1.7,1.29-2.5,1.92,0,0,0,.12,0,.16.19,0,.38,0,.69-.08-.76.87-1.46,1.61-2.12,2.37a6.46,6.46,0,0,0-.82,1.19,2.57,2.57,0,0,0,.18,2.86,4.45,4.45,0,0,1,.5.94c.43.71.86,1.42,1.35,2.28A92.4,92.4,0,0,0,252.81,114.38Zm9.89-22.29-.17-.13-.15.57.13.06Zm1.87-3.66a3.55,3.55,0,0,0,0-.55,6,6,0,0,0-.36.64l.13.1A.71.71,0,0,0,264.57,88.43Zm2.21-3.29A15.56,15.56,0,0,1,267.92,84a1.37,1.37,0,0,0-1.21.71c-.35.48-.88.88-1,1.56A6.75,6.75,0,0,0,266.78,85.14ZM270.69,90a5.81,5.81,0,0,0-1.1,3.15A11.27,11.27,0,0,0,270.69,90Z" style="fill:#950058"></path><path d="M268.06,125.87l-.34.33c-.72-.08-.76-.62-.85-1.16a8.72,8.72,0,0,0-1.93-4.45,33.59,33.59,0,0,0-2.43-2.5,14.13,14.13,0,0,0-1.18-1,3,3,0,0,1-.85-3.61.71.71,0,0,0,.09-.17c0-1.49,1-2.32,2.05-3,1.52-1,3.19-1.8,4.77-2.68.07-.05.19,0,.38-.06-.67,1-1.69,1.4-2.38,2.22.87-.46,1.77-.91,2.63-1.4.14-.06.2-.19.35-.25,1.47-.55,1.93-1.84,2.25-3.22l.35-.52c-.05,0-.08,0-.09-.07s-.21.16-.32.21c.14-.57.24-1.17.43-1.71,1.31-3.76,2.62-7.53,4-11.3.14-.37.32-.67.52-1.13.29.3.51.5.75.77a8.57,8.57,0,0,0,.47-.74c.64.1,1.2.4,1.27,1.09a3.9,3.9,0,0,1-.23,1.52c-.52,1.37-1.2,2.73-1.68,4.1-.84,2.32-1.55,4.7-2.34,7.05-.11.33-.16.69-.29,1.1.66,0,1.24,0,1.83,0a5.79,5.79,0,0,1,4.32,2.08.91.91,0,0,1,.18.44c0,.19,0,.39,0,.58a1.39,1.39,0,0,0,.24.51c-.35.49-.75.67-1.28.32a.59.59,0,0,0-.63,0c-.19.07-.53-.15-.72-.35a1.53,1.53,0,0,0-1.72-.47c-1.09.25-2.21.55-3.41.86-.43,1.95-.84,3.81-1.2,5.66a55.36,55.36,0,0,0-1.2,9.8,4,4,0,0,1-.12,1c-.19.77-.66,1-1.36.53A1.1,1.1,0,0,1,268.06,125.87Zm-6.58-11.25c-.41.58,0,.86.35,1.2A1.06,1.06,0,0,0,261.48,114.62Zm7.3-3.71c-2.49.83-5,2.65-5.54,3.94,1.39,1.38,2.82,2.75,4.26,4.16Z" style="fill:#950058"></path><path d="M207.59,227.28a3.39,3.39,0,0,1,0-.72,4.43,4.43,0,0,1-.5-.12,6.86,6.86,0,0,1-.18-1.31c.13-1.17.36-2.29.57-3.45.4-2.26.91-4.55,1.23-6.83.32-2.45.57-4.87.76-7.33.07-.57.46-1,.5-1.49l.17-6.6a1.21,1.21,0,0,0-.16-.36l-.31.19a49.34,49.34,0,0,0-1.34-8.24c-.73-2.72-2.26-5-3.5-7.47a8.27,8.27,0,0,1,3.61,4.44,36.13,36.13,0,0,1,1.37,5.19,12.52,12.52,0,0,1,.16,1.62c.05.19,0,.37.05.55a31.37,31.37,0,0,1,.78,4.88c.15,1.19.22,2.4.41,3.58a38.63,38.63,0,0,0-.17-6.36c-.28-1.8-.42-3.66-.79-5.44-.27-1.2-.85-2.38-1.19-3.56a13.46,13.46,0,0,0-1.4-3.24,13.07,13.07,0,0,0-1.93-2.42c.17.4.3.81.43,1.21a13.52,13.52,0,0,0-5.95-5.54,8.38,8.38,0,0,0-4-1.1c1.18.52,2.38.92,3.51,1.54a15.56,15.56,0,0,1,3.09,2.31c-.72-.39-1.46-.86-2.25-1.2a22.62,22.62,0,0,0-2.48-1c-.82-.29-1.7-.53-2.59-.8a6.44,6.44,0,0,0-.25.85A92.53,92.53,0,0,0,194,189.51a30.63,30.63,0,0,1-.41,3.45c-.12.7-.26.77-1.15.85l-.73-.78c-.19.2-.35.39-.51.55a.08.08,0,0,1-.09-.06.11.11,0,0,0,0-.08c-.4-2.84.2-5.62.4-8.43.13-2,.5-4.11.75-6.14,0-.32.09-.65.12-1.05-.72,0-1.36-.09-2-.07-2.39.1-4.78.21-7.15.38-1.12.1-2.26.47-3.36.68-2.35.45-4.67.85-7,1.26a18.38,18.38,0,0,1-2.46.31,17.25,17.25,0,0,1-1.74-.2c.43-.69-.43-.85-.26-1.48a6.25,6.25,0,0,0-.05-1.65,12.51,12.51,0,0,1,2.05-1.06c2.41-.89,4.83-1.71,7.28-2.58,3.16-1.07,6.33-2.1,9.49-3.16,2.24-.74,4.52-1.53,6.87-2.34.07-.37.18-.75.26-1.12.61-2.91,1.18-5.8,1.83-8.71.28-1.21.66-2.37,1-3.55a12,12,0,0,1,.56-1.2c.67.17,1.27.35,1.86.53.23.31.4.55.64.93a2.45,2.45,0,0,1-.12.85,38.26,38.26,0,0,0-2.1,7.87c-.24,1.08-.46,2.19-.67,3.39a5.38,5.38,0,0,0,.74-.05,24.19,24.19,0,0,0,2.76-.94c2.07-.82,4-1.7,6.06-2.55.36-.16.78-.41,1.19,0,.07.11.36,0,.51,0a41.43,41.43,0,0,0,5.47-1.86c1.32-.62,2.72-1.09,4.06-1.63.25-.1.5-.23.78-.37.18-1,.37-1.9.5-2.88a18,18,0,0,1,.77-2.9,3.64,3.64,0,0,0,.35-2.49,2.7,2.7,0,0,1,.13-1.21c.73-4.48,1.49-9,2.22-13.51.2-1.19.37-2.37.5-3.55a13.63,13.63,0,0,0,.21-3.13,18.23,18.23,0,0,1,.82-4.77l2,.54c.28,2.11-.09,4.17.49,6.25a4,4,0,0,1-.49.27l-.59,4a12.85,12.85,0,0,1,0-5.38c-.94.53-.8,1.32-.9,1.94a9.9,9.9,0,0,0-.6,3.69,11.48,11.48,0,0,1-.31,3c0,.65,0,1.28,0,1.91a3.55,3.55,0,0,0,.19.47c.11-.38.16-.7.28-1.21,0,5.9-1.3,11.44-2.22,17.18,1.47-.49,2.72-.89,4-1.32l7.94-2.62c2.59-.82,5.14-1.59,7.69-2.4a5.49,5.49,0,0,1,1.39-.31,31.1,31.1,0,0,0,3.69-.8c.72-.16,1.09-.79,1.84-1,1.18-.23,2.32-.76,3.52-1.07,4.35-1.21,8.73-2.48,13.17-3.28a17.51,17.51,0,0,1,2.48-.2,1.44,1.44,0,0,1,1.4.4.8.8,0,0,0,.63.17c.88-.12,1.35.57,1.9,1.08a.69.69,0,0,1,.22.46,4.55,4.55,0,0,1-.18,2,6.81,6.81,0,0,1-.68-.72l-1.83.65c-.48-1.59-1.73-1-2.71-1a22.06,22.06,0,0,0-2.68.56l-3,.68-6.09,1.61a30.92,30.92,0,0,0-3.62,1.09c-1.34.54-2.76.9-4,1.54a42.33,42.33,0,0,1-5.81,2.14c-5.54,1.88-11.07,3.67-16.62,5.52-.81.26-1.61.4-2.43.62l-.76.29c-.24.88-.44,1.76-.64,2.6-.68,0-.48.5-.61.84.18.08.28.18.41.23-.21,1.51-.39,3-.64,4.53q-2.53,15.33-5.12,30.67a37.44,37.44,0,0,1-1.07,4.55c0-1.07.1-2.2.17-3.28-.07,0-.12,0-.19,0-.25,1.36-.58,2.7-.75,4a25.82,25.82,0,0,0,0,3.05,47.69,47.69,0,0,1-.78,7.76,33.72,33.72,0,0,1-1.48,5.75,5.87,5.87,0,0,0-.52,2.41,2.79,2.79,0,0,1-.87,1.93Zm-17-51.11c-.28,0-.45-.06-.61-.07.45-.1.93-.09,1.38-.19s.94.31,1.41-.24A44.39,44.39,0,0,0,185,176c-1.23.12-2.43.23-3.65.42-.92.13-1.82.37-2.72.57l.07.31a9,9,0,0,0,1-.19c1.66-.17,3.28-.38,4.93-.59a16.58,16.58,0,0,1,4.4-.12l1.17.09C190.31,176.47,190.4,176.33,190.6,176.17Zm-6.91-2.44c1.35-.47,2.7-1,4.09-1.32s2.94-.62,4.44-1a8.44,8.44,0,0,0,1.35-.5l.1-.81c-.16,0-.25-.06-.37,0-.94.37-1.85.73-2.8,1.07-1.47.49-3,1-4.5,1.44s-2.93.86-4.39,1.23a4,4,0,0,0-1.68.93,3.9,3.9,0,0,0,1.3-.17C182,174.3,182.84,174,183.69,173.73Zm9.48-1.74a6.32,6.32,0,0,0-2.14.64,17.28,17.28,0,0,1-2.27,1c-1.65.57-3.31,1.1-5.15,1.72,1.75-.12,3.27-.23,4.77-.25s3,0,4.46,0A6,6,0,0,0,193.17,172Zm.94,6.11c-.33.43-.33.43-.13,1C194,178.67,194.06,178.39,194.11,178.1Zm.89-5.73-.25-.06c-.16.86-.37,1.7-.53,2.57a2.51,2.51,0,0,0,.33.4C194.7,174.21,194.85,173.27,195,172.37Zm18.47,22.92c0-1.19,0-2.41.1-3.62a38.53,38.53,0,0,1,.64-3.82c.19-1.07.47-2.12.59-3.18s.71-2.13.53-3.28c0-.11.1-.26.11-.38a8.51,8.51,0,0,0,.25-1.16c.18-.95.39-1.95.53-2.93.22-1.47.4-3,.58-4.43.08-.69.08-1.41.17-2.06.39-2.3.78-4.6,1.23-7a2.59,2.59,0,0,0-.86.07,26.39,26.39,0,0,0-2.77,1,26.72,26.72,0,0,1-5.5,1.91,18.41,18.41,0,0,0-2.78.82c-.76.29-1.5.69-2.26,1-1.3.53-2.65,1-4,1.53-1.13.41-2.31.79-3.48,1.21l-.81,4.65a4.32,4.32,0,0,0,1.13.26,10.69,10.69,0,0,1,3.81,1.12,16.34,16.34,0,0,1,1.86,1.25A19.27,19.27,0,0,0,205,180a4.34,4.34,0,0,1,1.41,1,31.74,31.74,0,0,1,2.18,2.83,20,20,0,0,1,2.79,6.45c.48,1.95.93,3.94,1.25,5.92a22.08,22.08,0,0,1,.08,3.34,3.56,3.56,0,0,0-.22-.46,6.1,6.1,0,0,0,.25,1.45,7.21,7.21,0,0,1,0,1.46A28.78,28.78,0,0,0,213.47,195.29Zm5.24-21.18c.07-.57.06-1.12.09-1.68.25-.49.5-.94.14-1.49-.05.48-.09,1-.18,1.46a12.65,12.65,0,0,0-.81,4.29v1.11A32.18,32.18,0,0,0,218.71,174.11Z" style="fill:#950058"></path><path d="M232.46,176a13.59,13.59,0,0,0-.53,1.7,15.83,15.83,0,0,0,2-2L240,168.6l1.52-1.88c.19-.2.44-.33.66-.54l.86,1.15c.46-.22.72-.83,1.37-.59.89.79.76,1.81.63,2.83a13.91,13.91,0,0,1-.44,1.91l-1.73,7.07c-.06.25-.16.51-.25.81-.43-.34-.25-.77-.22-1.14s.18-1,.3-1.49a8.29,8.29,0,0,0,.68-2.44,3.35,3.35,0,0,0-.68,2.44,2.13,2.13,0,0,0-.6,1.36c-.14.63-.27,1.25-.46,2l-.76-.54a3.68,3.68,0,0,1-.42.37c-.19-.11-.37-.23-.6-.34,0-.72.33-1.37,0-2.08-.08-.18.06-.45.12-.7l1-3.86c0-.21.06-.45.15-.9l-2.72,3a1.07,1.07,0,0,0-.33.11c-.4,0-.47,0-.66.58a2.52,2.52,0,0,1,.55-.2c.33,0,.48-.15.58-.4.31-.23.62-.42,1.1-.73a36.44,36.44,0,0,1-4.23,4.75c-.77.77-1.61,1.43-2.44,2.13a4.09,4.09,0,0,1-3.47.74,1.22,1.22,0,0,1-1.05-1.15,7.1,7.1,0,0,1,.33-3.83,40.74,40.74,0,0,1,1.81-4,37,37,0,0,1,5.37-7.61,9.76,9.76,0,0,1,2.68-1.95,6.86,6.86,0,0,0,1.14-.92,6.49,6.49,0,0,1,1.25-.92c.74-.4,1.39,0,2,.46-.16,0-.32,0-.57-.07,0,.2,0,.4,0,.67.34,0,.7,0,1-.06a2.18,2.18,0,0,1,1.11,2.47c-.74.56-.83.54-1.48-.06-.13.11-.3.23-.46.38-.14-.09-.31-.13-.45-.22s-.16-.2-.33-.4a12.66,12.66,0,0,0-1.24,1c-1.23,1.22-2.49,2.49-3.67,3.74-.68.67-1.26,1.43-1.89,2.13A20,20,0,0,0,232.46,176Zm-.63,3.7a5.44,5.44,0,0,1-.65.3C231.84,180.13,232,180,231.83,179.74Zm.58-.76c.24,0,.41.06.57.06a6.2,6.2,0,0,1,.2-.67ZM237,176a.17.17,0,0,1,.11.13l.17-.31Z" style="fill:#950058"></path><path d="M261.46,165.84c-.1,2.71-.17,5.38-.24,8.08l-.05,1.87a1.91,1.91,0,0,0,.19,1,1.88,1.88,0,0,1-.17,2.06,1.16,1.16,0,0,1-1.51.14,1.19,1.19,0,0,0-.51-.17c-.79-.17-1.05-.47-1.07-1.26l.07-4.24c0-1.19.07-2.35.15-3.55a3.66,3.66,0,0,1,.33-2,.65.65,0,0,0,.09-.5,8.47,8.47,0,0,0,0-1.43,6.14,6.14,0,0,0-.35-1.18,2.64,2.64,0,0,0-1.58.67,24.06,24.06,0,0,0-6.69,7.87,2.2,2.2,0,0,1-.61.81c-.51.35-.87.15-1-.46a23.2,23.2,0,0,1,0-2.36,19.71,19.71,0,0,1,.88-4.87l.59-2.14c-.08,0-.22.08-.41.13a15.41,15.41,0,0,1,1.55-4.18,3.52,3.52,0,0,1,.69.43c-.27.38-.51.71-.74,1.08a3,3,0,0,1,.6,2.16c.38-1,.83-1.77,1.2-2.76a2.07,2.07,0,0,1,.18.47c0,.15-.11.38-.06.41.65.64.19,1.22-.11,1.8a4.08,4.08,0,0,0-.32,1.42l1.81-1.48c-.06.45-.1.62-.14,1,.52-.31,1-.62,1.52-1a2.17,2.17,0,0,0-.52-.2,2.87,2.87,0,0,1,4.68-1A4.36,4.36,0,0,1,261.46,165.84Zm-11.22-2.45a3,3,0,0,1-.22.44c0,.08,0,.15.06.26C250.32,163.92,250.55,163.71,250.24,163.39Z" style="fill:#950058"></path><path d="M284.93,134.72a31.72,31.72,0,0,1-1.49,6.89,89.35,89.35,0,0,1-3.47,9.68,2.55,2.55,0,0,0-.19.59,117.62,117.62,0,0,0-1.61,12,1.23,1.23,0,0,1,0,.27c.52.36,1,.76,1.56,1.15a10.86,10.86,0,0,1-1.16,4.49,1.38,1.38,0,0,1-1.87.82c-.08,0-.22-.11-.29-.05a.72.72,0,0,1-.86-.13,1.75,1.75,0,0,1-.41-.93,16.61,16.61,0,0,1-.15-2.81c.07-1.24.26-2.51.38-3.73a3.51,3.51,0,0,0,0-1.33c-.17.27-.35.55-.49.82a53.43,53.43,0,0,1-5.45,8.45,11.11,11.11,0,0,1-2.67,2.5,3.88,3.88,0,0,1-3.22.29c-.67-.16-1-.69-1.07-1.42a11.35,11.35,0,0,1,.9-5.81,23,23,0,0,1,7.94-10.4,9.5,9.5,0,0,1,3.92-1.75,25.85,25.85,0,0,0,1.9-5.09c.38-2.15.89-4.28,1.41-6.37a26.91,26.91,0,0,1,1-3.19c.14-.43.56-.68.67-1.22a32.27,32.27,0,0,0,1-3.9,3.51,3.51,0,0,1,1-2.17l.4.54A1.67,1.67,0,0,1,284.93,134.72Zm-20.48,34.76-.19-.35s-.11.06-.14.1l.19.32C264.39,169.53,264.42,169.48,264.45,169.48Zm.27-1.8c-.27.22-.27.53-.32.86l.21.07Zm.14-.63a1.8,1.8,0,0,0-.06.45l.22-.41S264.9,167.08,264.86,167.05Zm7.71-7.54c-2.53,1.6-6.22,6.62-7,10.39A40.69,40.69,0,0,0,272.57,159.51Zm-6.81,6.11c0-.16.1-.25.14-.42C265.72,165.28,265.49,165.29,265.76,165.62Zm.2-.51c.13-.15.49-.27,0-.69Zm7.28-5.4a37.22,37.22,0,0,0-3,5.62l.23.14c.55-.91,1-1.85,1.59-2.76C273.28,160.57,273.34,160.48,273.24,159.71Z" style="fill:#950058"></path></g><g id="freepik--Ladder--inject-694"><path d="M146.67,154v27.81c-7.91,3.69-26.66,0-26.66,0V154C131.72,149.21,146.67,154,146.67,154Z" style="fill:#263238"></path><path d="M146.67,154v27.81c-7.91,3.69-26.66,0-26.66,0V154S138.17,158.31,146.67,154Z" style="fill:#fff;opacity:0.6000000000000001;isolation:isolate"></path><path d="M133.34,155.83v5a1.13,1.13,0,0,0,1.13,1.13h0a1.13,1.13,0,0,0,1.13-1.13v-2.13a.89.89,0,0,1,.89-.89h0a.89.89,0,0,1,.89.89V173a1.38,1.38,0,0,0,1.39,1.38h0a1.38,1.38,0,0,0,1.38-1.38V155.57l3.56-1.61-15.43-.4Z" style="fill:#263238"></path><path d="M120,153.49h0a1.14,1.14,0,0,1,1.06,1.21c-.23,4.86,1,8.52,3.62,10.9,2.28,2.07,5.66,3.15,10,3.23a6.71,6.71,0,0,0,4.74-1.58c3.32-2.92,3.51-9,3.43-11.46a1.14,1.14,0,0,1,1.07-1.18h0a1.12,1.12,0,0,1,1.22,1.09c.1,2.71-.11,9.37-4.05,12.83a9.29,9.29,0,0,1-6.46,2.18c-5-.09-9-1.38-11.69-3.84-3.07-2.77-4.48-6.92-4.21-12.32A1.12,1.12,0,0,1,120,153.49Z" style="fill:#263238"></path><g style="opacity:0.4;isolation:isolate"><path d="M120,153.49h0a1.14,1.14,0,0,1,1.06,1.21c-.23,4.86,1,8.52,3.62,10.9,2.28,2.07,5.66,3.15,10,3.23a6.71,6.71,0,0,0,4.74-1.58c3.32-2.92,3.51-9,3.43-11.46a1.14,1.14,0,0,1,1.07-1.18h0a1.12,1.12,0,0,1,1.22,1.09c.1,2.71-.11,9.37-4.05,12.83a9.29,9.29,0,0,1-6.46,2.18c-5-.09-9-1.38-11.69-3.84-3.07-2.77-4.48-6.92-4.21-12.32A1.12,1.12,0,0,1,120,153.49Z" style="fill:#fff"></path></g><path d="M196.24,417.1,172.6,184.71l-9.94,1,2.69,26.5H119.4l-2.8-27.51-9.94,1L130.19,417.1h10.05l-4.64-45.64h46l4.64,45.64ZM170.41,262H124.46l-4-39.75h46Zm5.06,49.74H129.52l-4-39.74h46Zm5.06,49.75H134.58l-4-39.75h46Z" style="fill:#263238"></path><g style="opacity:0.4"><path d="M196.24,417.1,172.6,184.71l-9.94,1,2.69,26.5H119.4l-2.8-27.51-9.94,1L130.19,417.1h10.05l-4.64-45.64h46l4.64,45.64ZM170.41,262H124.46l-4-39.75h46Zm5.06,49.74H129.52l-4-39.74h46Zm5.06,49.75H134.58l-4-39.75h46Z" style="fill:#fff"></path></g><path d="M88.71,417.1l4.64-45.64h46l-4.64,45.64h10.05l23.53-231.38-10-1-2.8,27.51H109.55l2.69-26.5-9.95-1L78.66,417.1Zm19.82-194.88h45.95l-4,39.75H104.49ZM103.47,272h45.95l-4,39.74H99.43Zm-5.06,49.74h46l-4,39.75H94.37Z" style="fill:#950058"></path><g style="opacity:0.4"><path d="M88.71,417.1l4.64-45.64h46l-4.64,45.64h10.05l23.53-231.38-10-1-2.8,27.51H109.55l2.69-26.5-9.95-1L78.66,417.1Zm19.82-194.88h45.95l-4,39.75H104.49ZM103.47,272h45.95l-4,39.74H99.43Zm-5.06,49.74h46l-4,39.75H94.37Z" style="fill:#fff"></path></g><path d="M183.47,185.74a5.29,5.29,0,0,1-5.3,5.29H98.92a5.29,5.29,0,0,1-5.29-5.29,5.33,5.33,0,0,1,5.29-5.3h79.25A5.3,5.3,0,0,1,183.47,185.74Z" style="fill:#950058"></path><path d="M161.8,185.74a5.29,5.29,0,0,1-5.3,5.29H98.92a5.29,5.29,0,0,1-5.29-5.29,5.33,5.33,0,0,1,5.29-5.3H156.5A5.31,5.31,0,0,1,161.8,185.74Z" style="fill:#fff;opacity:0.2"></path><path d="M201,390.49l-2-.15c.43-5.77-.61-10.08-3.1-12.81-2-2.19-5-3.34-8.78-3.42a5.19,5.19,0,0,0-4.14,1.68c-3.7,3.93-3,13.26-2.95,13.35l-2,.17c0-.42-.82-10.3,3.49-14.89a7.23,7.23,0,0,1,5.64-2.31c4.4.09,7.84,1.46,10.22,4.08C200.28,379.34,201.49,384.15,201,390.49Z" style="fill:#263238"></path><g style="opacity:0.6000000000000001;isolation:isolate"><path d="M201,390.49l-2-.15c.43-5.77-.61-10.08-3.1-12.81-2-2.19-5-3.34-8.78-3.42a5.19,5.19,0,0,0-4.14,1.68c-3.7,3.93-3,13.26-2.95,13.35l-2,.17c0-.42-.82-10.3,3.49-14.89a7.23,7.23,0,0,1,5.64-2.31c4.4.09,7.84,1.46,10.22,4.08C200.28,379.34,201.49,384.15,201,390.49Z" style="fill:#fff"></path></g><path d="M202.59,387.65v27.81c-7.91,3.69-26.66,0-26.66,0V387.65C187.64,382.9,202.59,387.65,202.59,387.65Z" style="fill:#950058"></path><path d="M202.59,387.65v27.81c-7.91,3.69-26.66,0-26.66,0V387.65S194.09,392,202.59,387.65Z" style="fill:#fff;opacity:0.6000000000000001;isolation:isolate"></path><path d="M189.26,389.52v5a1.14,1.14,0,0,0,1.13,1.13h0a1.13,1.13,0,0,0,1.13-1.13v-2.14a.89.89,0,0,1,.89-.89h0a.89.89,0,0,1,.89.89v14.24a1.39,1.39,0,0,0,1.39,1.39h0a1.38,1.38,0,0,0,1.38-1.39V389.25l3.56-1.6-15.43-.4Z" style="fill:#950058"></path><path d="M233.07,387.49l-2-.15c.43-5.77-.61-10.08-3.09-12.81-2-2.19-4.95-3.34-8.79-3.42a5.22,5.22,0,0,0-4.14,1.68c-3.69,3.93-3,13.26-3,13.35l-2,.17c0-.42-.82-10.3,3.48-14.89a7.25,7.25,0,0,1,5.64-2.31c4.41.09,7.85,1.46,10.23,4.08C232.32,376.34,233.54,381.15,233.07,387.49Z" style="fill:#263238"></path><g style="opacity:0.6000000000000001;isolation:isolate"><path d="M233.07,387.49l-2-.15c.43-5.77-.61-10.08-3.09-12.81-2-2.19-4.95-3.34-8.79-3.42a5.22,5.22,0,0,0-4.14,1.68c-3.69,3.93-3,13.26-3,13.35l-2,.17c0-.42-.82-10.3,3.48-14.89a7.25,7.25,0,0,1,5.64-2.31c4.41.09,7.85,1.46,10.23,4.08C232.32,376.34,233.54,381.15,233.07,387.49Z" style="fill:#fff"></path></g><path d="M234.64,384.65v27.81c-7.91,3.69-26.66,0-26.66,0V384.65C219.69,379.9,234.64,384.65,234.64,384.65Z" style="fill:#263238"></path><path d="M234.64,384.65v27.81c-7.91,3.69-26.66,0-26.66,0V384.65S226.14,389,234.64,384.65Z" style="fill:#fff;opacity:0.6000000000000001;isolation:isolate"></path><path d="M221.31,386.52v5a1.13,1.13,0,0,0,1.13,1.13h0a1.14,1.14,0,0,0,1.13-1.13v-2.14a.89.89,0,0,1,.89-.89h0a.89.89,0,0,1,.89.89v14.24a1.38,1.38,0,0,0,1.38,1.39h0a1.38,1.38,0,0,0,1.38-1.39V386.25l3.57-1.6-15.43-.4Z" style="fill:#263238"></path><polygon points="195.48 407.55 195.48 417.1 254.75 417.1 273.02 412.06 273.02 402.98 221.31 402.98 195.48 407.55" style="fill:#950058"></polygon><polygon points="195.48 407.55 254.5 407.55 273.02 402.98 273.02 412.06 254.75 417.1 195.48 417.1 195.48 407.55" style="fill:#fff;opacity:0.30000000000000004"></polygon><polygon points="254.5 407.55 254.75 417.1 273.02 412.06 273.02 402.98 254.5 407.55" style="fill:#fff;opacity:0.30000000000000004"></polygon></g><g id="freepik--Character--inject-694"><path d="M299,170h0a1.74,1.74,0,0,1-2.31.79l-10.94-4-3.72,2a3.22,3.22,0,0,1-2.12.26l-.94-.2-3.08-.61,4.1-8.86,2.79,1.17,1,.42a4.05,4.05,0,0,1,2.11,2l.63,1.42,10.84,3.09A2.12,2.12,0,0,1,299,170Z" style="fill:#263238"></path><path d="M282.79,160.57l-1,2s-.75-.27-.9,0,1.33,1.26,1.42,1.63-1.27.08-1.27.08l-.57,1.85s1.94,1.27,1.09,1a3.19,3.19,0,0,0-1.74.07l-.87,1.73-3.08-.61,4.1-8.86Z" style="fill:#950058"></path><path d="M299,170h0a1.74,1.74,0,0,1-2.31.79l-10.94-4-3.72,2a3.22,3.22,0,0,1-2.12.26l-.94-.2-3.08-.61,4.1-8.86,2.79,1.17,1,.42a4.05,4.05,0,0,1,2.11,2l.63,1.42,10.84,3.09A2.12,2.12,0,0,1,299,170Z" style="fill:#fff;opacity:0.2"></path><path d="M430.81,273.57l-2-.15c.42-5.77-.62-10.07-3.1-12.8-2-2.2-5-3.35-8.78-3.43a5.26,5.26,0,0,0-4.15,1.68c-3.69,3.94-3,13.26-3,13.36l-2,.17c0-.42-.82-10.31,3.48-14.9a7.26,7.26,0,0,1,5.65-2.31c4.4.09,7.84,1.46,10.22,4.08C430.06,262.42,431.28,267.23,430.81,273.57Z" style="fill:#263238"></path><g style="opacity:0.6000000000000001;isolation:isolate"><path d="M430.81,273.57l-2-.15c.42-5.77-.62-10.07-3.1-12.8-2-2.2-5-3.35-8.78-3.43a5.26,5.26,0,0,0-4.15,1.68c-3.69,3.94-3,13.26-3,13.36l-2,.17c0-.42-.82-10.31,3.48-14.9a7.26,7.26,0,0,1,5.65-2.31c4.4.09,7.84,1.46,10.22,4.08C430.06,262.42,431.28,267.23,430.81,273.57Z" style="fill:#fff"></path></g><path d="M432.38,270.73v27.81c-7.91,3.69-26.66,0-26.66,0V270.73C417.43,266,432.38,270.73,432.38,270.73Z" style="fill:#950058"></path><path d="M432.38,270.73v27.81c-7.91,3.69-26.66,0-26.66,0V270.73S423.88,275.08,432.38,270.73Z" style="fill:#fff;opacity:0.6000000000000001;isolation:isolate"></path><path d="M419.05,272.6v5a1.14,1.14,0,0,0,1.13,1.13h0a1.14,1.14,0,0,0,1.13-1.13v-2.13a.89.89,0,0,1,.89-.89h0a.89.89,0,0,1,.89.89v14.24a1.38,1.38,0,0,0,1.38,1.38h0a1.38,1.38,0,0,0,1.39-1.38V272.34l3.56-1.61-15.43-.4Z" style="fill:#950058"></path><path d="M391.3,181.57c7.06,3.71,11.56,40.5,15.05,46.63s12.39,21.56,12.39,21.56,3.56,7.32,2.77,10.88c0,0-6.33-1-7.32-1.78s-2.18-6.77-1.59-7.93c0,0-12.26-15.34-14.44-19.83s-12.9-35.73-12.9-35.73Z" style="fill:#ebb376"></path><polygon points="407.66 397.72 401 398.9 398.27 389.82 395.77 381.48 403.45 378.8 405.69 388.82 407.66 397.72" style="fill:#e4897b"></polygon><polygon points="405.72 389.02 398.3 390 395.79 381.57 403.46 378.84 405.72 389.02" style="opacity:0.2;isolation:isolate"></polygon><polygon points="363.19 400.58 356.43 400.58 355.32 391.16 354.31 382.51 362.34 381.21 362.8 391.46 363.19 400.58" style="fill:#e4897b"></polygon><polygon points="362.8 391.67 355.32 391.34 354.31 382.61 362.34 381.26 362.8 391.67" style="opacity:0.2;isolation:isolate"></polygon><path d="M406.35,383.74l-11,1.93c-11-27.53-18.91-50.51-24.46-69.58-3-10.29-5.32-19.44-7.11-27.56l.5,30v68.08H353.21c-27-129-7.88-158.48-7.88-158.48l32.36-5.53a146.33,146.33,0,0,1,2.71,18.11l1.46,10.7,12.65,65.32Z" style="fill:#950058"></path><g style="opacity:0.5;isolation:isolate"><path d="M406.35,383.74l-11,1.93c-10.09-25.15-17.53-46.5-23-64.54l-1.5-5c-2.71-9.34-4.6-17.74-6.6-25.28v0a10.54,10.54,0,0,0-.51-2.26l.51,30v68.08H353.21c-16.52-78.79-15.8-120.45-12.74-140.95,2-13.07,4.86-17.53,4.86-17.53l32.36-5.53a146.33,146.33,0,0,1,2.71,18.11l.44,3.22,1,7.48,12.65,65.32Z" style="fill:#fff"></path></g><polygon points="393.68 384.31 407.26 379.81 407.08 385.59 395.85 389.17 393.68 384.31" style="fill:#950058"></polygon><polygon points="393.68 384.31 407.26 379.81 407.08 385.59 395.85 389.17 393.68 384.31" style="fill:#fff;opacity:0.6000000000000001;isolation:isolate"></polygon><polygon points="351.76 384.94 365.92 382.87 364.73 388.53 353.05 390.1 351.76 384.94" style="fill:#950058"></polygon><polygon points="351.76 384.94 365.92 382.87 364.73 388.53 353.05 390.1 351.76 384.94" style="fill:#fff;opacity:0.6000000000000001;isolation:isolate"></polygon><path d="M372.43,321.13c-.51-1.71-1-3.39-1.5-5-2.71-9.34-4.6-17.74-6.6-25.28v0l-1.15-13.88s6.91-15.25,4.32-26c.24.61,4.81,12.3,3,24A339,339,0,0,0,372.43,321.13Z" style="opacity:0.2;isolation:isolate"></path><path d="M380.84,243.9l-40.37,1.73c2-13.07,4.86-17.53,4.86-17.53l32.36-5.53a146.33,146.33,0,0,1,2.71,18.11Z" style="opacity:0.2;isolation:isolate"></path><path d="M373.54,132.93c2.06-.23,7.51,5.77,7.71,8.24s-16.94.88-16.94.88S366.62,133.68,373.54,132.93Z" style="fill:#950058"></path><path d="M373.54,132.93c2.06-.23,7.51,5.77,7.71,8.24s-16.94.88-16.94.88S366.62,133.68,373.54,132.93Z" style="opacity:0.2;isolation:isolate"></path><path d="M376.43,166.93a1.57,1.57,0,0,1-.26.19,11.9,11.9,0,0,1-4.18,2c-4.42,1-7.44.42-9.41-1.58h0c-2.76-3-3.45-8.32-3.06-14.73a24.08,24.08,0,0,1,1.4-7.49s0-.09,0-.11.07-.19.11-.27a8.75,8.75,0,0,1,6.43-5.34,17.73,17.73,0,0,1,3.79-.43C383.76,139.08,386,159.79,376.43,166.93Z" style="fill:#ebb376"></path><path d="M376.17,167.12A11.61,11.61,0,0,1,372,169c-4.42,1-7.44.27-9.41-1.76a12.46,12.46,0,0,0,7.93-.65C372.3,165.76,374.29,166.18,376.17,167.12Z" style="opacity:0.2;isolation:isolate"></path><path d="M377.44,178.41c.77,3.56-3.84,5-3.84,5-7.54-3.22-8.94-7.23-8.94-7.23,6.29-3.28,4.47-12.56,4.47-12.56l1.28.63,9,1.75s-2.49,4.79-2.82,5.88c0,0,0,0,0,0C374.87,177.62,377.44,178.41,377.44,178.41Z" style="fill:#ebb376"></path><path d="M360.9,145.28s-.69,8.77,7.62,12.53c0,0,3.57,9.11,8.82,9.24,7.16.17,13.47-10,11-20.39C385.11,133.2,364.73,132.11,360.9,145.28Z" style="fill:#263238"></path><path d="M364.31,155.3c0-1.37,1.11-3.67,3.23-3.36s3.42,5.75-2,7C364.78,159.07,364.31,158.15,364.31,155.3Z" style="fill:#ebb376"></path><path d="M376.17,136s-8.36-2.11-13,1.25c-5.4,3.93-7.44,8-1.05,14.3,0,0,14-4.55,18.71-3.59a50,50,0,0,1,8,2.32C389.83,141,380.84,134.07,376.17,136Z" style="fill:#263238"></path><path d="M359.41,141.56s-3.87,2.65-2.09,6.72,7,4.16,7,4.16" style="fill:none;stroke:#263238;stroke-linecap:round;stroke-linejoin:round;stroke-width:0.5px"></path><path d="M388.92,154.43s-.47,7.59-5.49,9.2c0,0-19.12-4.45-24.75-22.56a10.25,10.25,0,0,1,2.56-2.91c.37-.3.78-.61,1.24-.93h0a21.19,21.19,0,0,1,2.14-1.29c.43-.23.9-.46,1.39-.68h0a34.12,34.12,0,0,1,7.5-2.32s.3,24.26,10.38,27A12.84,12.84,0,0,0,388.92,154.43Z" style="fill:#950058"></path><path d="M383.92,160c3.6-1.29,6.76,4,5.44,9.69,0,0-4.45-3-5.44-6,0,0,.7,4.54-2.17,7.31C381.75,170.94,378.68,161.84,383.92,160Z" style="fill:#950058"></path><path d="M383.92,160c3.6-1.29,6.76,4,5.44,9.69,0,0-4.45-3-5.44-6,0,0,.7,4.54-2.17,7.31C381.75,170.94,378.68,161.84,383.92,160Z" style="opacity:0.2;isolation:isolate"></path><g style="opacity:0.2;isolation:isolate"><path d="M380,160.89a2.76,2.76,0,0,0-2.24-2.81s0,0-.05,0c-.06-.16-.13-.31-.2-.46a4.32,4.32,0,0,0-1.27-1.55,2,2,0,0,0-.53-.28,1,1,0,0,0-.35-.47,1,1,0,0,0-.6-.2,13.92,13.92,0,0,0-2,.32,1.63,1.63,0,0,1-1.52-.42,2.54,2.54,0,0,1-.48-.71.85.85,0,0,1-.07-.69,1.2,1.2,0,0,1,.37-.51,3.18,3.18,0,0,0,.27.37,1.71,1.71,0,0,0,1,.63,1.54,1.54,0,0,0,1.18-.38,2.8,2.8,0,0,0,.73-.83.8.8,0,0,0-.55-1.27,3.71,3.71,0,0,0-2.11.32l-.19.09-.09-.25,0,0a8.15,8.15,0,0,0,1.7-1.14,4.68,4.68,0,0,0,1.3-1.68,1.55,1.55,0,0,0,0-1.33,1.68,1.68,0,0,0-1.09-.67,2.26,2.26,0,0,0-2.2.54,3.36,3.36,0,0,0-.8,2,6.21,6.21,0,0,0,.1,1.67,4,4,0,0,1-1.06.26,3.79,3.79,0,0,1-1.69-.2c-.5-.2-.87-.61-.78-.9s.56-.64,1.1-.78a3.29,3.29,0,0,0,1.9-1.13,1.85,1.85,0,0,0,.36-1.2,2.58,2.58,0,0,0-.29-1.12,3.86,3.86,0,0,0-.31-.51,6,6,0,0,0,.56-.74,1.94,1.94,0,0,0,.32-1.19,1.29,1.29,0,0,0-.87-1.1,2.42,2.42,0,0,0-1.18-.06,7.69,7.69,0,0,0-1,.23,29.37,29.37,0,0,1-3.65,1,2.75,2.75,0,0,1-1.63-.15c-.24-.13-.38-.26-.4-.39a1.15,1.15,0,0,1,.15-.64,6,6,0,0,1,1-1.22h.15A14.14,14.14,0,0,0,367,141a19.12,19.12,0,0,0,3.72-1.24,5.52,5.52,0,0,0,1.71-1.13.94.94,0,0,0,.18-.25.86.86,0,0,0,.13-.32.78.78,0,0,0,0-.4,1,1,0,0,0-.19-.34,2.05,2.05,0,0,0-1-.52,7.53,7.53,0,0,0-4,.71,18.71,18.71,0,0,0-3.46,1.89,15,15,0,0,0-1.76,1.44,1.8,1.8,0,0,1-.87-.37.81.81,0,0,1-.31-.69,3,3,0,0,1,.17-.88,4.34,4.34,0,0,1,1.21-1.65c-.46.32-.87.63-1.24.93a3.37,3.37,0,0,0-.32.59,1.64,1.64,0,0,0-.15.49,2.83,2.83,0,0,0-.08.52,1.28,1.28,0,0,0,.43,1,2.31,2.31,0,0,0,.8.43,7.2,7.2,0,0,0-.76,1,1.91,1.91,0,0,0-.24,1.22,1.2,1.2,0,0,0,.35.63,2,2,0,0,0,.5.36,3.61,3.61,0,0,0,2.15.25l.38-.08a4.4,4.4,0,0,0-.44,2.65,1.11,1.11,0,0,0,.45.69,1.3,1.3,0,0,0,.71.22,4.45,4.45,0,0,0,2.07-.6,10.82,10.82,0,0,0,1.82-1.24c0,.08.1.15.14.23a1.27,1.27,0,0,1,0,1.34,2.38,2.38,0,0,1-1.38.77,3.68,3.68,0,0,0-1,.47,1.65,1.65,0,0,0-.75,1,1.55,1.55,0,0,0,.39,1.29,2.67,2.67,0,0,0,1,.65,4.66,4.66,0,0,0,2.11.26,5.36,5.36,0,0,0,1.2-.27c0,.13.09.25.14.38a2.09,2.09,0,0,0-.68.94,1.55,1.55,0,0,0,.13,1.18,3.35,3.35,0,0,0,.61.87,2.25,2.25,0,0,0,2.05.57,12.71,12.71,0,0,1,1.84-.35.42.42,0,0,1,.26.05,1.36,1.36,0,0,0-.73.51,1.74,1.74,0,0,0-.33,1,1.27,1.27,0,0,0,.47,1,.65.65,0,0,0,.72,0,1.18,1.18,0,0,0,.41-.46,2.8,2.8,0,0,0,.3-1,2.75,2.75,0,0,0,0-.64,2.12,2.12,0,0,1,.21.11,4,4,0,0,1,1.19,1.38c.06.1.1.21.15.31a1.4,1.4,0,0,0-.6.15.87.87,0,0,0-.52.87,1.13,1.13,0,0,0,.67.78,1.05,1.05,0,0,0,.54.12.56.56,0,0,0,.43-.41,2,2,0,0,0,0-1c0-.11-.07-.21-.1-.32a2.65,2.65,0,0,1,1.59.9A2.7,2.7,0,0,1,380,160.89Zm-8.05-8.3a3.11,3.11,0,0,1,1.66-.24.28.28,0,0,1,.13.06.55.55,0,0,1,0,.13,2.54,2.54,0,0,1-.55.59c-.5.46-1,.12-1.35-.46A.8.8,0,0,0,371.92,152.59Zm-.78-3a2.59,2.59,0,0,1,.57-1.51,1.4,1.4,0,0,1,1.38-.29c.57.15.67.32.5.82a4,4,0,0,1-1.07,1.33,8,8,0,0,1-1.33.9A5.26,5.26,0,0,1,371.14,149.6Zm-6.62-9.54a17.66,17.66,0,0,1,3.28-1.86,7,7,0,0,1,3.52-.74,1.59,1.59,0,0,1,.68.3c0,.07.07.09.05.15a.19.19,0,0,1-.05.12.44.44,0,0,1-.1.15,5,5,0,0,1-1.48,1,18.57,18.57,0,0,1-3.58,1.27,15.14,15.14,0,0,1-3.4.47C363.79,140.62,364.15,140.33,364.52,140.06Zm2.14,6.64a3.81,3.81,0,0,1-1.59.49.52.52,0,0,1-.21-.05s0,0-.05-.11a4.25,4.25,0,0,1,0-.8,3.13,3.13,0,0,1,.59-1.53,1.16,1.16,0,0,1,1.21-.45,3.32,3.32,0,0,1,1.38.9c.13.13.24.27.36.4A9.51,9.51,0,0,1,366.66,146.7Zm2.38-1.86-.36-.4a6.45,6.45,0,0,0-1-.8l0,0a3.32,3.32,0,0,1,1.61-.18c.32.11.37.46.07,1A4.58,4.58,0,0,1,369,144.84Zm6,12.84a.77.77,0,0,1-.21.27.15.15,0,0,1-.18,0,1.12,1.12,0,0,1-.08-1.43.75.75,0,0,1,.64-.38,2.17,2.17,0,0,1,.06.73A2.49,2.49,0,0,1,375.05,157.68Zm2.56,1.82c-.07.27-.33.31-.61.16a.91.91,0,0,1-.57-.6.66.66,0,0,1,.4-.68,1.25,1.25,0,0,1,.58-.15A2.3,2.3,0,0,1,377.61,159.5ZM371.13,136a4.69,4.69,0,0,0-3.65-.93,11.94,11.94,0,0,0-1.44.22h0c-.49.22-1,.45-1.39.68a10.34,10.34,0,0,1,2.85-.75A4.63,4.63,0,0,1,371.13,136Z"></path></g><path d="M391.3,181.57s-6.9-2.71-13.09-4.42a106.05,106.05,0,0,0-14.68-2.55,98.75,98.75,0,0,0-14.08-.55c.13,2.26.23,4.4.32,6.41.12,2.65.2,5.11.26,7.39.11,4.27.09,7.94,0,11.19a109.43,109.43,0,0,1-2.56,21.07l-7,17,41.87,5.33L380,225.74h0c6.95-20.22,9.92-30.87,11-36.92C392.25,182.09,391.3,181.57,391.3,181.57Z" style="fill:#950058"></path><path d="M345.93,415.31a10.73,10.73,0,0,1,3.42-1.86h0s3.72-3.69,5.51-14.8l4.87-1.27a4.15,4.15,0,0,1,4.43,1.73,2.53,2.53,0,0,1,.31.64,29.33,29.33,0,0,1,.52,3.61c.49,3.76.07,12.2.07,12.2h-.88l-.35-7.66c-.13-2.6-2.12.45-2.69,3.25s-1.78,5.78-7.48,5.92C347,417.2,344.25,416.94,345.93,415.31Z" style="fill:#263238"></path><path d="M364.33,399.2c.32-2.6.42-7.12.42-7.12l-10.82,1.2s1.31,5.14.23,9C359.61,400.85,364.33,399.2,364.33,399.2Z" style="fill:#263238"></path><path d="M390,415.31a11,11,0,0,1,3.42-1.86h0s3.72-3.69,5.51-14.8l4.87-1.27a4.14,4.14,0,0,1,4.43,1.73,2.23,2.23,0,0,1,.31.64,27.53,27.53,0,0,1,.52,3.61c.49,3.76.07,12.2.07,12.2h-.88l-.35-7.66c-.13-2.6-2.12.45-2.69,3.25s-1.78,5.78-7.48,5.92C391,417.2,388.27,416.94,390,415.31Z" style="fill:#263238"></path><path d="M408.35,399.2c.32-2.6.42-7.12.42-7.12L398,393.28s1.31,5.14.23,9C403.63,400.85,408.35,399.2,408.35,399.2Z" style="fill:#263238"></path><path d="M349.45,174.05c-6.89.72-20.42,18.36-28.33,16.93S305,175.35,305,175.35s-3.75-7.79-6.28-9.76-11.63,4.67-11.63,4.67,6.15,8.33,11.38,8.76c0,0,13.75,21.25,19.68,23.46s34.12-11.21,34.12-11.21C356.82,179,349.45,174.05,349.45,174.05Z" style="fill:#ebb376"></path><path d="M380.84,140.38c.43-3.75,9.81-10,16.14-6.31s6.53,14.35,2.77,17.84.39,4.69,1,10.23-6.53,3.35-5.34,7.51,5.53,5.54,2.76,7.91-8.5,4-10.28-2.77,2.77-9.48,2.77-11.16-5.34,2.56-6.13-4.71,3.89-11.82,2.24-12.81S380.39,144.23,380.84,140.38Z" style="fill:#263238"></path><polygon points="350.56 214.5 367.81 227.28 380.81 220.89 378.25 230.91 367.81 229.58 348.03 227.63 350.56 214.5" style="opacity:0.1;isolation:isolate"></polygon><path d="M367.81,227.28c-3.33.06-12.24,2.71-9.07,6.82s9.07-3.72,9.07-3.72l-7.76,11.35,5.54.68,3-11.5,3.8,10.23,3.45-1-6.33-9.23s9,7.52,9.36,3.19S367.81,227.28,367.81,227.28Zm-6.57,4.62c-.46-1.65,4.83-2.32,4.83-2.32S361.7,233.55,361.24,231.9Zm14.77.4c-.92,1.18-6.13-2.72-6.13-2.72S376.93,231.12,376,232.3Z" style="fill:#950058"></path><path d="M367.81,227.28c-3.33.06-12.24,2.71-9.07,6.82s9.07-3.72,9.07-3.72l-7.76,11.35,5.54.68,3-11.5,3.8,10.23,3.45-1-6.33-9.23s9,7.52,9.36,3.19S367.81,227.28,367.81,227.28Zm-6.57,4.62c-.46-1.65,4.83-2.32,4.83-2.32S361.7,233.55,361.24,231.9Zm14.77.4c-.92,1.18-6.13-2.72-6.13-2.72S376.93,231.12,376,232.3Z" style="opacity:0.2;isolation:isolate"></path></g></svg>